<svg width="284" height="65" viewBox="0 0 284 65" fill="none" xmlns="http://www.w3.org/2000/svg">
<path fill-rule="evenodd" clip-rule="evenodd" d="M29.2137 24.1402C29.636 23.9653 30.0194 23.7089 30.342 23.3857C30.9923 22.7359 31.3575 21.8557 31.3575 20.9381C31.3575 20.4672 31.2613 20.0061 31.0798 19.581C32.0653 19.8715 32.9828 20.3765 33.7618 21.0692V45.7486H29.1115V46.4334H45.3958V45.7486H40.7456V27.0129C45.3958 22.0415 52.3796 19.9955 52.3796 24.4257C52.3819 25.3467 52.75 26.2292 53.4036 26.8804C54.0572 27.5316 54.943 27.8984 55.8673 27.9006C56.328 27.9052 56.785 27.8179 57.2113 27.6438C57.6376 27.4697 58.0247 27.2124 58.3497 26.887C58.6747 26.5616 58.9311 26.1748 59.1037 25.7492C59.2764 25.3236 59.3618 24.8678 59.355 24.4088V24.3964C59.355 22.0798 59.355 18.6004 54.6369 18.6004C49.9103 18.6004 44.6406 21.2045 40.7456 25.1444V18.6004H30.4473C30.4131 18.5631 30.378 18.5264 30.342 18.4905C27.8811 16.0386 22.1277 16.8587 18.029 20.8831C16.2767 19.8799 14.2965 19.3386 12.2757 19.3106C9.71465 19.3016 7.22202 20.1336 5.18329 21.6778C3.14455 23.2221 1.6733 25.3927 0.997076 27.8537C0.320857 30.3148 0.477348 32.9293 1.44235 35.2929C2.40735 37.6565 4.12709 39.6374 6.33558 40.9293C4.48568 41.3351 2.09268 42.02 0.862233 44.81C-0.0372635 46.6363 0.921634 48.7499 2.0163 49.8829C0.945289 50.8543 0.238846 52.1606 0.0136513 53.5861C-0.249409 57.137 3.28069 62.7256 11.3592 62.7256C19.4377 62.7256 22.9254 58.7688 23.9521 55.5645C25.1826 51.5062 22.9254 46.4333 16.6968 46.4333C16.6968 46.4333 4.45173 46.4333 3.35706 45.9514C2.09268 45.4103 2.09268 44.3197 2.94126 43.6348C4.06987 42.7471 6.19133 42.5442 12.2757 42.5442C14.7968 42.5403 17.2487 41.7218 19.2632 40.2115C21.2777 38.7011 22.7462 36.5805 23.4481 34.1679C24.1501 31.7553 24.0477 29.181 23.1562 26.8313C22.2648 24.4817 20.6324 22.4835 18.5042 21.1368C21.4124 18.3502 22.4652 19.7445 23.9063 21.6532C24.3322 22.2173 24.7921 22.8264 25.3438 23.3857H25.4202C25.7427 23.7089 26.1262 23.9653 26.5485 24.1402C26.9708 24.3152 27.4237 24.4053 27.8811 24.4053C28.3385 24.4053 28.7913 24.3152 29.2137 24.1402ZM5.10514 50.4409H16.6543V50.4578C18.6824 50.4578 22.9254 51.1342 22.6284 53.8651C22.3398 56.8665 18.5127 59.7242 11.5968 59.7242C4.68085 59.7242 1.12529 56.6467 1.21015 54.1863C1.27804 51.9374 3.26372 50.9144 5.10514 50.4409ZM15.5674 21.3743C16.4426 22.2464 16.9344 23.4291 16.9344 24.6624V37.2008C16.9344 38.4341 16.4426 39.6168 15.5674 40.4889C14.6921 41.361 13.505 41.8509 12.2672 41.8509C11.0294 41.8509 9.84223 41.361 8.96696 40.4889C8.09169 39.6168 7.59997 38.4341 7.59997 37.2008V24.6624C7.59997 23.4291 8.09169 22.2464 8.96696 21.3743C9.84223 20.5022 11.0294 20.0123 12.2672 20.0123C13.505 20.0123 14.6921 20.5022 15.5674 21.3743ZM92.6788 46.4334H88.0286C87.0635 45.4698 85.8335 44.8127 84.4939 44.5448C83.1544 44.277 81.7652 44.4105 80.5016 44.9285C80.4124 44.9729 80.1433 45.0795 79.9237 45.1666L79.9235 45.1667C79.8092 45.212 79.7083 45.252 79.6531 45.2751C77.9093 46.0483 76.0204 46.4432 74.1118 46.4334C70.4096 46.4334 66.8591 44.9681 64.2412 42.3598C61.6234 39.7516 60.1527 36.214 60.1527 32.5254C60.1527 28.8367 61.6234 25.2992 64.2412 22.6909C66.8591 20.0826 70.4096 18.6173 74.1118 18.6173C75.8233 18.6114 77.5201 18.9329 79.11 19.5643C79.4494 19.708 80.612 20.1815 80.8835 20.2491C82.1117 20.6537 83.4279 20.7139 84.6881 20.4231C85.9483 20.1323 87.1039 19.5017 88.0286 18.6004V38.8918C88.0286 42.7049 88.8772 45.7739 92.6788 45.7739V46.4334ZM81.0532 38.7988V26.252C81.0532 24.4065 80.3174 22.6367 79.0077 21.3317C77.698 20.0268 75.9216 19.2937 74.0694 19.2937C72.2172 19.2937 70.4408 20.0268 69.1311 21.3317C67.8214 22.6367 67.0856 24.4065 67.0856 26.252V38.7988C67.0856 40.6442 67.8214 42.4141 69.1311 43.719C70.4408 45.0239 72.2172 45.757 74.0694 45.757C75.9216 45.757 77.698 45.0239 79.0077 43.719C80.3174 42.4141 81.0532 40.6442 81.0532 38.7988ZM118.272 19.2937H122.379L122.405 18.6004H113.07V19.2768H117.525L111.84 34.8251C110.931 34.7695 110.053 34.475 109.296 33.9715C108.539 33.468 107.929 32.7736 107.529 31.9589L102.879 19.2768H106.85V18.6004H90.5573V19.2684H95.4876L105.408 46.408L106.502 49.4095L103.906 56.3593C103.429 57.7404 102.536 58.9409 101.348 59.7961C100.16 60.6514 98.7352 61.1194 97.2696 61.1362C94.6827 61.1362 95.2726 59.244 95.9309 57.1326C96.2486 56.1135 96.5823 55.0434 96.5823 54.1103C96.5832 53.6541 96.4929 53.2024 96.3166 52.7814C96.1403 52.3604 95.8816 51.9786 95.5555 51.6584C94.891 51.0012 93.9927 50.6323 93.0564 50.6323C92.1201 50.6323 91.2218 51.0012 90.5573 51.6584C90.2328 51.9798 89.975 52.3617 89.7988 52.7825C89.6227 53.2032 89.5315 53.6544 89.5306 54.1103C89.5316 55.9291 90.1765 57.6893 91.3517 59.081C92.527 60.4728 94.1572 61.4069 95.9557 61.719C97.7541 62.0311 99.6054 61.7012 101.184 60.7873C102.762 59.8734 103.966 58.4342 104.584 56.7228L108.352 46.4334L118.272 19.2937Z" fill="url(#paint0_linear_74_155)"/>
<path d="M163.196 32.4577C163.194 36.1519 161.724 39.6952 159.109 42.3137C156.494 44.9323 152.944 46.4133 149.237 46.4334C146.785 46.4073 144.382 45.749 142.261 44.5226V64.256H146.912V65H130.627V64.256H135.278V21.1368C134.014 19.9713 132.349 19.3354 130.627 19.3613V18.6089H142.261V20.2914C142.601 20.1561 142.872 20.0208 143.212 19.8855C145.097 19.0007 147.153 18.5334 149.237 18.5159C152.94 18.5315 156.487 20.0065 159.102 22.6186C161.717 25.2308 163.189 28.768 163.196 32.4577ZM156.221 26.2519C156.163 24.4492 155.406 22.7392 154.107 21.4822C152.809 20.2253 151.072 19.5197 149.261 19.5142C147.451 19.5087 145.71 20.2038 144.404 21.4528C143.098 22.7019 142.33 24.4074 142.261 26.2097V38.7988C142.334 40.6013 143.106 42.3054 144.415 43.5518C145.724 44.7981 147.467 45.4892 149.278 45.4794C151.088 45.4695 152.824 44.7594 154.12 43.4989C155.415 42.2383 156.168 40.5259 156.221 38.7227V26.2519Z" fill="#333333"/>
<path d="M199.261 46.4336H194.61C193.644 45.4693 192.413 44.8117 191.072 44.5439C189.73 44.2761 188.34 44.4099 187.075 44.9286C186.939 44.9963 186.396 45.2076 186.226 45.2753C184.479 46.0462 182.588 46.4409 180.677 46.4336C176.975 46.4336 173.424 44.9683 170.806 42.36C168.188 39.7517 166.718 36.2142 166.718 32.5255C166.718 28.8369 168.188 25.2993 170.806 22.6911C173.424 20.0828 176.975 18.6175 180.677 18.6175C182.388 18.6107 184.085 18.9322 185.675 19.5644C186.014 19.7082 187.185 20.1816 187.457 20.2493C188.686 20.6545 190.004 20.7151 191.266 20.4243C192.527 20.1335 193.685 19.5026 194.61 18.6006V38.8919C194.61 42.705 195.459 45.7741 199.261 45.7741V46.4336ZM187.627 38.8243V26.2521C187.659 25.3185 187.503 24.3879 187.167 23.5158C186.831 22.6436 186.322 21.8479 185.671 21.1759C185.019 20.5039 184.239 19.9695 183.376 19.6045C182.513 19.2395 181.585 19.0514 180.647 19.0514C179.709 19.0514 178.781 19.2395 177.918 19.6045C177.055 19.9695 176.275 20.5039 175.623 21.1759C174.972 21.8479 174.463 22.6436 174.127 23.5158C173.791 24.3879 173.635 25.3185 173.667 26.2521V38.7989C173.731 40.6013 174.494 42.3088 175.796 43.5617C177.098 44.8145 178.837 45.5147 180.647 45.5147C182.457 45.5147 184.197 44.8145 185.499 43.5617C186.801 42.3088 187.564 40.6013 187.627 38.7989V38.8243Z" fill="#333333"/>
<path d="M215.553 45.7486V46.4334H199.261V45.7486H203.911V2.53642C202.632 1.39502 200.978 0.760332 199.261 0.752471V0H210.895V45.7486H215.553Z" fill="#333333"/>
<path d="M241.478 37.2008H242.233C241.278 39.9144 239.502 42.2661 237.149 43.9318C234.796 45.5975 231.983 46.4951 229.097 46.5011H229.029C225.315 46.4876 221.759 45.0049 219.143 42.3792C216.527 39.7535 215.065 36.1999 215.078 32.5C215.092 28.8002 216.58 25.2572 219.215 22.6505C221.851 20.0438 225.417 18.587 229.131 18.6004C230.495 18.6098 231.852 18.7917 233.17 19.1415C236.021 20.0086 238.521 21.7592 240.305 24.1388C242.089 26.5185 243.064 29.4031 243.09 32.3732V32.5085H222.113V38.7819C222.129 40.4783 222.764 42.1109 223.899 43.3756C225.034 44.6402 226.592 45.4505 228.282 45.6556C228.554 45.6556 229.037 45.7232 229.131 45.7232C231.813 45.7174 234.431 44.8992 236.636 43.3772C238.841 41.8551 240.529 39.7011 241.478 37.2008ZM222.113 31.8828H231.447C232.063 31.8795 232.672 31.7552 233.239 31.5169C233.806 31.2787 234.32 30.9312 234.752 30.4945C235.184 30.0577 235.525 29.5403 235.756 28.9719C235.987 28.4034 236.103 27.7952 236.098 27.182V26.252C236.13 25.3184 235.974 24.3877 235.638 23.5156C235.302 22.6435 234.793 21.8477 234.142 21.1757C233.49 20.5038 232.71 19.9693 231.847 19.6043C230.984 19.2393 230.056 19.0512 229.118 19.0512C228.18 19.0512 227.252 19.2393 226.389 19.6043C225.526 19.9693 224.746 20.5038 224.094 21.1757C223.443 21.8477 222.934 22.6435 222.598 23.5156C222.262 24.3877 222.106 25.3184 222.138 26.252L222.113 31.8828Z" fill="#333333"/>
<path d="M265.976 37.2008C266.079 38.4805 265.915 39.7676 265.494 40.9809C265.073 42.1942 264.404 43.3076 263.53 44.2508C262.656 45.1941 261.595 45.9469 260.415 46.4617C259.235 46.9766 257.96 47.2423 256.671 47.2423C255.383 47.2423 254.108 46.9766 252.928 46.4617C251.748 45.9469 250.687 45.1941 249.813 44.2508C248.939 43.3076 248.27 42.1942 247.849 40.9809C247.428 39.7676 247.264 38.4805 247.367 37.2008V14.6605H242.708V13.9757C246.612 13.9757 252.042 8.72528 252.042 2.3166V0H254.368V13.9757H261.351V14.6605H254.368V37.2008C254.368 41.9017 255.946 44.2267 258.678 44.2267C261.894 44.2267 265.043 41.4282 265.323 37.2008H265.976Z" fill="#333333"/>
<path d="M283.975 37.2008C284.069 38.4765 283.899 39.7579 283.474 40.965C283.049 42.1721 282.379 43.2788 281.505 44.2161C280.632 45.1534 279.573 45.901 278.396 46.4123C277.219 46.9235 275.949 47.1874 274.666 47.1874C273.382 47.1874 272.112 46.9235 270.935 46.4123C269.758 45.901 268.7 45.1534 267.826 44.2161C266.952 43.2788 266.282 42.1721 265.857 40.965C265.432 39.7579 265.262 38.4765 265.357 37.2008V14.6605H260.706V13.9757C264.61 13.9757 270.041 8.72528 270.041 2.3166V0H272.366V13.9757H279.35V14.6605H272.366V37.2008C272.366 41.9017 273.944 44.2267 276.677 44.2267C279.893 44.2267 283.041 41.4282 283.313 37.2008H283.975Z" fill="#333333"/>
<defs>
<linearGradient id="paint0_linear_74_155" x1="30.0482" y1="31.3823" x2="121.365" y2="25.8059" gradientUnits="userSpaceOnUse">
<stop stop-color="#CC89FF"/>
<stop offset="1" stop-color="#FF5A4C"/>
</linearGradient>
</defs>
</svg>
